<svg width="1168" height="965" viewBox="0 0 1168 965" fill="none" xmlns="http://www.w3.org/2000/svg">
<g filter="url(#filter0_f_155_12)">
<path d="M867.722 586.745C867.591 795.659 698.592 964.911 490.253 964.78C281.914 964.65 113.128 795.186 113.259 586.272C113.39 377.358 282.388 208.106 490.727 208.236C699.067 208.367 867.853 377.831 867.722 586.745Z" fill="url(#paint0_linear_155_12)"/>
<path d="M867.722 586.745C867.591 795.659 698.592 964.911 490.253 964.78C281.914 964.65 113.128 795.186 113.259 586.272C113.39 377.358 282.388 208.106 490.727 208.236C699.067 208.367 867.853 377.831 867.722 586.745Z" fill="url(#paint1_linear_155_12)"/>
</g>
<defs>
<filter id="filter0_f_155_12" x="-186.741" y="-91.7637" width="1354.46" height="1356.54" filterUnits="userSpaceOnUse" color-interpolation-filters="sRGB">
<feFlood flood-opacity="0" result="BackgroundImageFix"/>
<feBlend mode="normal" in="SourceGraphic" in2="BackgroundImageFix" result="shape"/>
<feGaussianBlur stdDeviation="150" result="effect1_foregroundBlur_155_12"/>
</filter>
<linearGradient id="paint0_linear_155_12" x1="490.727" y1="208.236" x2="490.253" y2="964.78" gradientUnits="userSpaceOnUse">
<stop stop-color="#BF3F8F"/>
<stop offset="1" stop-color="#534B4B" stop-opacity="0"/>
</linearGradient>
<linearGradient id="paint1_linear_155_12" x1="490.727" y1="208.236" x2="490.253" y2="964.78" gradientUnits="userSpaceOnUse">
<stop stop-color="#BF3F8F"/>
<stop offset="1" stop-color="#534B4B" stop-opacity="0"/>
</linearGradient>
</defs>
</svg>
