<svg width="1026" height="965" viewBox="0 0 1026 965" fill="none" xmlns="http://www.w3.org/2000/svg">
<g filter="url(#filter0_f_155_11)">
<path d="M832.118 401.042C832.025 548.342 712.869 667.677 565.975 667.584C419.081 667.492 300.075 548.008 300.167 400.709C300.259 253.41 419.415 134.075 566.309 134.167C713.204 134.259 832.21 253.743 832.118 401.042Z" fill="url(#paint0_linear_155_11)"/>
<path d="M832.118 401.042C832.025 548.342 712.869 667.677 565.975 667.584C419.081 667.492 300.075 548.008 300.167 400.709C300.259 253.41 419.415 134.075 566.309 134.167C713.204 134.259 832.21 253.743 832.118 401.042Z" fill="url(#paint1_linear_155_11)"/>
</g>
<defs>
<filter id="filter0_f_155_11" x="0.166992" y="-165.833" width="1131.95" height="1133.42" filterUnits="userSpaceOnUse" color-interpolation-filters="sRGB">
<feFlood flood-opacity="0" result="BackgroundImageFix"/>
<feBlend mode="normal" in="SourceGraphic" in2="BackgroundImageFix" result="shape"/>
<feGaussianBlur stdDeviation="150" result="effect1_foregroundBlur_155_11"/>
</filter>
<linearGradient id="paint0_linear_155_11" x1="566.309" y1="134.167" x2="565.975" y2="667.584" gradientUnits="userSpaceOnUse">
<stop stop-color="#BF3F8F"/>
<stop offset="1" stop-color="#534B4B" stop-opacity="0"/>
</linearGradient>
<linearGradient id="paint1_linear_155_11" x1="566.309" y1="134.167" x2="565.975" y2="667.584" gradientUnits="userSpaceOnUse">
<stop stop-color="#BF3F8F"/>
<stop offset="1" stop-color="#534B4B" stop-opacity="0"/>
</linearGradient>
</defs>
</svg>
