<svg width="742" height="1357" viewBox="0 0 742 1357" fill="none" xmlns="http://www.w3.org/2000/svg">
<g filter="url(#filter0_f_111_306)">
<path d="M441.722 678.745C441.591 887.658 272.592 1056.91 64.2533 1056.78C-144.086 1056.65 -312.872 887.186 -312.741 678.272C-312.61 469.358 -143.612 300.106 64.7274 300.236C273.067 300.367 441.853 469.831 441.722 678.745Z" fill="url(#paint0_linear_111_306)"/>
<path d="M441.722 678.745C441.591 887.658 272.592 1056.91 64.2533 1056.78C-144.086 1056.65 -312.872 887.186 -312.741 678.272C-312.61 469.358 -143.612 300.106 64.7274 300.236C273.067 300.367 441.853 469.831 441.722 678.745Z" fill="url(#paint1_linear_111_306)"/>
</g>
<defs>
<filter id="filter0_f_111_306" x="-612.741" y="0.236328" width="1354.46" height="1356.54" filterUnits="userSpaceOnUse" color-interpolation-filters="sRGB">
<feFlood flood-opacity="0" result="BackgroundImageFix"/>
<feBlend mode="normal" in="SourceGraphic" in2="BackgroundImageFix" result="shape"/>
<feGaussianBlur stdDeviation="150" result="effect1_foregroundBlur_111_306"/>
</filter>
<linearGradient id="paint0_linear_111_306" x1="64.7274" y1="300.236" x2="64.2533" y2="1056.78" gradientUnits="userSpaceOnUse">
<stop stop-color="#BF3F8F"/>
<stop offset="1" stop-color="#534B4B" stop-opacity="0"/>
</linearGradient>
<linearGradient id="paint1_linear_111_306" x1="64.7274" y1="300.236" x2="64.2533" y2="1056.78" gradientUnits="userSpaceOnUse">
<stop stop-color="#BF3F8F"/>
<stop offset="1" stop-color="#534B4B" stop-opacity="0"/>
</linearGradient>
</defs>
</svg>
