<svg width="1280" height="680" viewBox="0 0 1280 680" fill="none" xmlns="http://www.w3.org/2000/svg">
<g filter="url(#filter0_f_100_17)">
<path d="M1080.3 -61.5042C1080.15 182.178 883.024 379.598 640.012 379.446C397 379.294 200.124 181.627 200.276 -62.0557C200.429 -305.738 397.553 -503.158 640.565 -503.006C883.577 -502.854 1080.45 -305.187 1080.3 -61.5042Z" fill="url(#paint0_linear_100_17)"/>
<path d="M1080.3 -61.5042C1080.15 182.178 883.024 379.598 640.012 379.446C397 379.294 200.124 181.627 200.276 -62.0557C200.429 -305.738 397.553 -503.158 640.565 -503.006C883.577 -502.854 1080.45 -305.187 1080.3 -61.5042Z" fill="url(#paint1_linear_100_17)"/>
</g>
<defs>
<filter id="filter0_f_100_17" x="-99.7236" y="-803.006" width="1480.02" height="1482.45" filterUnits="userSpaceOnUse" color-interpolation-filters="sRGB">
<feFlood flood-opacity="0" result="BackgroundImageFix"/>
<feBlend mode="normal" in="SourceGraphic" in2="BackgroundImageFix" result="shape"/>
<feGaussianBlur stdDeviation="150" result="effect1_foregroundBlur_100_17"/>
</filter>
<linearGradient id="paint0_linear_100_17" x1="640.565" y1="-503.006" x2="640.012" y2="379.446" gradientUnits="userSpaceOnUse">
<stop stop-color="#BF3F8F"/>
<stop offset="1" stop-color="#534B4B" stop-opacity="0"/>
</linearGradient>
<linearGradient id="paint1_linear_100_17" x1="640.565" y1="-503.006" x2="640.012" y2="379.446" gradientUnits="userSpaceOnUse">
<stop stop-color="#BF3F8F"/>
<stop offset="1" stop-color="#534B4B" stop-opacity="0"/>
</linearGradient>
</defs>
</svg>
