<svg width="493.662" height="494.03" xmlns="http://www.w3.org/2000/svg" viewBox="0 0 500 500"><rect fill="none" stroke-width="4" stroke="#259f71" x="212.237" y="1.627" transform="rotate(.1)" width="57.46" height="3.94" rx="1.57"/><rect fill="none" stroke-width="4" stroke="#259f71" x="192.23" y="8.057" width="116.48" height="3.92" rx="1.56"/><rect fill="none" stroke-width="4" stroke="#259f71" x="179.27" y="13.997" width="146.4" height="3.98" rx="1.6"/><rect fill="none" stroke-width="4" stroke="#259f71" x="167.26" y="19.927" width="174.42" height="4.06" rx="1.73"/><rect fill="none" stroke-width="4" stroke="#259f71" x="158.21" y="25.987" width="189.5" height="4" rx="1.63"/><rect fill="none" stroke-width="4" stroke="#259f71" x="146.23" y="31.987" width="207.44" height="4" rx="1.53"/><rect fill="none" stroke-width="4" stroke="#259f71" x="417.982" y="35.085" transform="rotate(-.4)" width="22.46" height="3.88" rx="1.48"/><rect fill="none" stroke-width="4" stroke="#259f71" x="137.26" y="37.987" width="223.4" height="3.98" rx="1.49"/><rect fill="none" stroke-width="4" stroke="#259f71" x="411.21" y="37.987" width="42.52" height="4" rx="1.72"/><rect fill="none" stroke-width="4" stroke="#259f71" x="128.25" y="43.887" width="234.42" height="4.1" rx="1.7"/><rect fill="none" stroke-width="4" stroke="#259f71" x="401.19" y="43.987" width="57.54" height="4" rx="1.75"/><rect fill="none" stroke-width="4" stroke="#259f71" x="122.22" y="49.967" width="246.46" height="4.02" rx="1.67"/><rect fill="none" stroke-width="4" stroke="#259f71" x="394.24" y="49.977" width="73.46" height="4" rx="1.67"/><rect fill="none" stroke-width="4" stroke="#259f71" x="115.19" y="55.987" width="262.48" height="4" rx="1.45"/><rect fill="none" stroke-width="4" stroke="#259f71" x="388.2" y="55.987" width="85.52" height="4" rx="1.67"/><rect fill="none" stroke-width="4" stroke="#259f71" x="209.26" y="61.987" width="270.4" height="3.98" rx="1.5"/><rect fill="none" stroke-width="4" stroke="#259f71" x="109.986" y="62.425" transform="rotate(-.2)" width="30.48" height="3.94" rx="1.51"/><rect fill="none" stroke-width="4" stroke="#259f71" x="213.2" y="67.827" width="269.5" height="4.16" rx="1.87"/><rect fill="none" stroke-width="4" stroke="#259f71" x="107.18" y="67.997" width="18.52" height="3.98" rx="1.54"/><rect fill="none" stroke-width="4" stroke="#259f71" x="219.25" y="73.977" width="263.44" height="4" rx="1.63"/><circle fill="none" stroke-width="4" stroke="#259f71" cx="102.94" cy="75.977" r="1.97"/><rect fill="none" stroke-width="4" stroke="#259f71" x="221.21" y="79.987" width="263.5" height="4" rx="1.61"/><rect fill="none" stroke-width="4" stroke="#259f71" x="209.26" y="85.987" width="275.42" height="4" rx="1.66"/><rect fill="none" stroke-width="4" stroke="#259f71" x="206.17" y="91.787" width="276.54" height="4.2" rx="1.9"/><rect fill="none" stroke-width="4" stroke="#259f71" x="218.25" y="97.967" width="263.42" height="4.02" rx="1.57"/><rect fill="none" stroke-width="4" stroke="#259f71" x="218.2" y="103.987" width="260.48" height="4" rx="1.37"/><rect fill="none" stroke-width="4" stroke="#259f71" x="209.16" y="109.987" width="265.58" height="3.98" rx="1.96"/><path fill="none" stroke-width="4" stroke="#259f71" d="M193.44 116.157c91.94-.58 183.85-.41 275.78-.14a1.4 1.42 78.2 0 1 1.27.82c1.11 2.37-.45 3.15-2.5 3.15H193.22a2.02 2.02 0 0 1-1.92-1.4q-.77-2.41 2.14-2.43z"/><rect fill="none" stroke-width="4" stroke="#259f71" x="188.23" y="121.967" width="275.46" height="4.02" rx="1.9"/><rect fill="none" stroke-width="4" stroke="#259f71" x="179.2" y="127.987" width="278.46" height="4" rx="1.88"/><rect fill="none" stroke-width="4" stroke="#259f71" x="187.22" y="133.987" width="264.48" height="4" rx="1.68"/><rect fill="none" stroke-width="4" stroke="#259f71" x="185.19" y="139.787" width="239.5" height="4.2" rx="1.75"/><rect fill="none" stroke-width="4" stroke="#259f71" x="439.18" y="140.007" width="18.54" height="3.98" rx="1.65"/><rect fill="none" stroke-width="4" stroke="#259f71" x="185.27" y="145.967" width="237.4" height="4.02" rx="1.45"/><rect fill="none" stroke-width="4" stroke="#259f71" x="443.02" y="145.987" width="21.74" height="3.98" rx="1.93"/><rect fill="none" stroke-width="4" stroke="#259f71" x="179.17" y="151.987" width="249.72" height="4" rx="1.73"/><rect fill="none" stroke-width="4" stroke="#259f71" x="441.17" y="151.987" width="32.54" height="4" rx="1.56"/><rect fill="none" stroke-width="4" stroke="#259f71" x="178.18" y="157.987" width="253.52" height="4" rx="1.58"/><rect fill="none" stroke-width="4" stroke="#259f71" x="446.18" y="157.997" width="21.52" height="3.98" rx="1.55"/><rect fill="none" stroke-width="4" stroke="#259f71" x="475.9" y="149.658" transform="rotate(1)" width="6.52" height="3.98" rx="1.49"/><rect fill="none" stroke-width="4" stroke="#259f71" x="178.2" y="163.807" width="289.48" height="4.18" rx="1.66"/><rect fill="none" stroke-width="4" stroke="#259f71" x="475.89" y="164.837" transform="rotate(-.1)" width="9.52" height="3.98" rx="1.51"/><rect fill="none" stroke-width="4" stroke="#259f71" x="178.21" y="169.977" width="307.46" height="4" rx="1.51"/><rect fill="none" stroke-width="4" stroke="#259f71" x="179.17" y="175.987" width="304.54" height="4" rx="1.56"/><rect fill="none" stroke-width="4" stroke="#259f71" x="56.18" y="181.987" width="21.52" height="4" rx="1.53"/><rect fill="none" stroke-width="4" stroke="#259f71" x="178.2" y="181.987" width="292.5" height="4" rx="1.57"/><rect fill="none" stroke-width="4" stroke="#259f71" x="487.899" y="182.912" transform="rotate(-.1)" width="3.44" height="3.84" rx="1.24"/><rect fill="none" stroke-width="4" stroke="#259f71" x="175.19" y="187.807" width="286.5" height="4.18" rx="1.69"/><rect fill="none" stroke-width="4" stroke="#259f71" x="50.19" y="187.987" width="12.52" height="3.98" rx="1.63"/><rect fill="none" stroke-width="4" stroke="#259f71" x="86.873" y="187.809" transform="rotate(.2)" width="3.46" height="3.78" rx="1.21"/><rect fill="none" stroke-width="4" stroke="#259f71" x="485.432" y="179.496" transform="rotate(1)" width="6.5" height="3.96" rx="1.46"/><rect fill="none" stroke-width="4" stroke="#259f71" x="190.21" y="193.967" width="265.46" height="4.02" rx="1.77"/><rect fill="none" stroke-width="4" stroke="#259f71" x="49.952" y="193.243" transform="rotate(.8)" width="9.5" height="3.98" rx="1.71"/><rect fill="none" stroke-width="4" stroke="#259f71" x="101.894" y="193.757" transform="rotate(.2)" width="3.46" height="3.78" rx="1.21"/><rect fill="none" stroke-width="4" stroke="#259f71" x="473.18" y="193.997" width="9.52" height="3.96" rx="1.5"/><rect fill="none" stroke-width="4" stroke="#259f71" x="51.23" y="198.919" transform="rotate(1.2)" width="6.68" height="3.96" rx="1.79"/><rect fill="none" stroke-width="4" stroke="#259f71" x="113.915" y="199.715" transform="rotate(.2)" width="3.46" height="3.78" rx="1.21"/><rect fill="none" stroke-width="4" stroke="#259f71" x="190.17" y="199.987" width="277.52" height="4" rx="1.56"/><rect fill="none" stroke-width="4" stroke="#259f71" x="191.2" y="205.977" width="264.48" height="4" rx="1.76"/><rect fill="none" stroke-width="4" stroke="#259f71" x="191.21" y="211.887" width="258.46" height="4.1" rx="1.87"/><rect fill="none" stroke-width="4" stroke="#259f71" x="59.18" y="211.997" width="12.52" height="3.98" rx="1.53"/><rect fill="none" stroke-width="4" stroke="#259f71" x="190.21" y="217.977" width="246.46" height="4" rx="1.65"/><rect fill="none" stroke-width="4" stroke="#259f71" x="97.1" y="212.161" transform="rotate(3.7)" width="3.62" height="3.78" rx="1.35"/><rect fill="none" stroke-width="4" stroke="#259f71" x="102.129" y="222.369" transform="rotate(1)" width="3.48" height="3.6" rx="1.06"/><rect fill="none" stroke-width="4" stroke="#259f71" x="197.22" y="223.987" width="78.52" height="4" rx="1.76"/><rect fill="none" stroke-width="4" stroke="#259f71" x="300.321" y="202.022" transform="rotate(4.3)" width="3.52" height="3.8" rx="1.27"/><rect fill="none" stroke-width="4" stroke="#259f71" x="302.776" y="222.94" transform="rotate(.2)" width="6.92" height="2.94" rx="1.4"/><rect fill="none" stroke-width="4" stroke="#259f71" x="323.15" y="223.987" width="110.54" height="4" rx="1.71"/><rect fill="none" stroke-width="4" stroke="#259f71" x="197.22" y="229.987" width="60.5" height="3.98" rx="1.67"/><rect fill="none" stroke-width="4" stroke="#259f71" x="287.828" y="228.967" transform="rotate(.2)" width="9.7" height="3.98" rx="1.65"/><rect fill="none" stroke-width="4" stroke="#259f71" x="302.18" y="229.987" width="21.52" height="4" rx="1.55"/><rect fill="none" stroke-width="4" stroke="#259f71" x="329.17" y="229.987" width="99.54" height="4" rx="1.63"/><rect fill="none" stroke-width="4" stroke="#259f71" x="197.665" y="235.491" transform="rotate(.1)" width="59.44" height="4.1" rx="1.77"/><rect fill="none" stroke-width="4" stroke="#259f71" x="335.2" y="235.887" width="93.48" height="4.1" rx="1.65"/><rect fill="none" stroke-width="4" stroke="#259f71" x="296.615" y="235.507" transform="rotate(.1)" width="3.48" height="3.9" rx="1.34"/><rect fill="none" stroke-width="4" stroke="#259f71" x="320.18" y="235.997" width="12.52" height="3.98" rx="1.53"/><rect fill="none" stroke-width="4" stroke="#259f71" x="338.22" y="241.977" width="93.44" height="4" rx="1.5"/><rect fill="none" stroke-width="4" stroke="#259f71" x="80.686" y="237.272" transform="rotate(3.7)" width="3.62" height="3.78" rx="1.36"/><rect fill="none" stroke-width="4" stroke="#259f71" x="193.2" y="241.987" width="46.54" height="4" rx="1.8"/><ellipse fill="none" stroke-width="4" stroke="#259f71" cx="258.651" cy="-247.452" transform="rotate(86.7)" rx="2" ry="1.92"/><rect fill="none" stroke-width="4" stroke="#259f71" x="323.18" y="241.997" width="10.52" height="3.98" rx="1.52"/><rect fill="none" stroke-width="4" stroke="#259f71" x="190.06" y="247.987" width="46.68" height="4" rx="1.81"/><ellipse fill="none" stroke-width="4" stroke="#259f71" cx="264.986" cy="-253.096" transform="rotate(86.7)" rx="2" ry="1.92"/><rect fill="none" stroke-width="4" stroke="#259f71" x="299.642" y="243.785" transform="rotate(.8)" width="7.52" height="3.98" rx="1.5"/><rect fill="none" stroke-width="4" stroke="#259f71" x="326.18" y="247.997" width="12.52" height="3.98" rx="1.53"/><rect fill="none" stroke-width="4" stroke="#259f71" x="341.16" y="247.987" width="87.54" height="4" rx="1.54"/><rect fill="none" stroke-width="4" stroke="#259f71" x="190.19" y="253.987" width="43.54" height="4" rx="1.74"/><rect fill="none" stroke-width="4" stroke="#259f71" x="298.02" y="253.997" width="13.7" height="3.98" rx="1.7"/><rect fill="none" stroke-width="4" stroke="#259f71" x="326.18" y="253.997" width="12.52" height="3.98" rx="1.52"/><rect fill="none" stroke-width="4" stroke="#259f71" x="341.16" y="253.987" width="84.54" height="4" rx="1.65"/><path fill="none" stroke-width="4" stroke="#259f71" d="M374.94 260.007q.14.03.24-.15.11-.19.33-.19 23.89.29 47.82.35c2 .01 3.24 1.08 2.08 3.13a1.67 1.67 0 0 1-1.45.84h-81.05a1.66 1.64 75.7 0 1-1.45-.87q-.98-1.81.23-2.68.65-.46 2.1-.45c8.84.02 17.78.27 26.59-.27q2.29-.14 4.56.29z"/><rect fill="none" stroke-width="4" stroke="#259f71" x="187.21" y="259.987" width="46.52" height="4" rx="1.75"/><circle fill="none" stroke-width="4" stroke="#259f71" cx="279.95" cy="261.967" r="1.98"/><rect fill="none" stroke-width="4" stroke="#259f71" x="294.18" y="259.997" width="17.52" height="3.98" rx="1.54"/><rect fill="none" stroke-width="4" stroke="#259f71" x="326.18" y="259.997" width="12.52" height="3.98" rx="1.52"/><rect fill="none" stroke-width="4" stroke="#259f71" x="188.06" y="265.987" width="45.68" height="4" rx="1.75"/><rect fill="none" stroke-width="4" stroke="#259f71" x="284.01" y="265.997" width="27.72" height="3.98" rx="1.73"/><rect fill="none" stroke-width="4" stroke="#259f71" x="328.979" y="262.507" transform="rotate(.6)" width="9.5" height="3.98" rx="1.48"/><rect fill="none" stroke-width="4" stroke="#259f71" x="341.18" y="265.997" width="81.52" height="3.98" rx="1.55"/><rect fill="none" stroke-width="4" stroke="#259f71" x="188.17" y="271.987" width="46.54" height="4" rx="1.54"/><rect fill="none" stroke-width="4" stroke="#259f71" x="290.18" y="271.987" width="21.52" height="4" rx="1.55"/><rect fill="none" stroke-width="4" stroke="#259f71" x="326.18" y="271.987" width="9.52" height="3.98" rx="1.5"/><rect fill="none" stroke-width="4" stroke="#259f71" x="341.17" y="271.987" width="78.54" height="4" rx="1.61"/><rect fill="none" stroke-width="4" stroke="#259f71" x="188.18" y="277.987" width="27.52" height="4" rx="1.54"/><rect fill="none" stroke-width="4" stroke="#259f71" x="296.18" y="277.997" width="18.52" height="3.98" rx="1.55"/><rect fill="none" stroke-width="4" stroke="#259f71" x="323.669" y="277.433" transform="rotate(.1)" width="11.52" height="3.96" rx="1.51"/><rect fill="none" stroke-width="4" stroke="#259f71" x="338.16" y="277.987" width="78.54" height="4" rx="1.59"/><rect fill="none" stroke-width="4" stroke="#259f71" x="335.19" y="283.927" width="78.46" height="4.06" rx="1.73"/><rect fill="none" stroke-width="4" stroke="#259f71" x="187.17" y="283.987" width="28.54" height="4" rx="1.56"/><rect fill="none" stroke-width="4" stroke="#259f71" x="242.18" y="283.997" width="12.52" height="3.98" rx="1.52"/><rect fill="none" stroke-width="4" stroke="#259f71" x="296.679" y="283.466" transform="rotate(.1)" width="15.52" height="3.98" rx="1.52"/><rect fill="none" stroke-width="4" stroke="#259f71" x="320.18" y="283.997" width="12.52" height="3.98" rx="1.52"/><rect fill="none" stroke-width="4" stroke="#259f71" x="332.21" y="289.977" width="78.44" height="4" rx="1.55"/><rect fill="none" stroke-width="4" stroke="#259f71" x="184.17" y="289.987" width="30.54" height="4" rx="1.55"/><rect fill="none" stroke-width="4" stroke="#259f71" x="239.18" y="289.997" width="12.52" height="3.98" rx="1.52"/><rect fill="none" stroke-width="4" stroke="#259f71" x="297.69" y="289.478" transform="rotate(.1)" width="11.52" height="3.96" rx="1.51"/><rect fill="none" stroke-width="4" stroke="#259f71" x="317.18" y="289.997" width="12.52" height="3.98" rx="1.52"/><rect fill="none" stroke-width="4" stroke="#259f71" x="237.18" y="295.987" width="14.52" height="3.98" rx="1.52"/><rect fill="none" stroke-width="4" stroke="#259f71" x="300.814" y="291.244" transform="rotate(.9)" width="9.5" height="3.98" rx="1.61"/><rect fill="none" stroke-width="4" stroke="#259f71" x="314.54" y="295.438" transform="rotate(.1)" width="12.7" height="3.98" rx="1.68"/><rect fill="none" stroke-width="4" stroke="#259f71" x="329.17" y="295.987" width="81.54" height="4" rx="1.56"/><rect fill="none" stroke-width="4" stroke="#259f71" x="185.57" y="295.921" transform="rotate(.1)" width="3.66" height="3.48" rx="1.1"/><rect fill="none" stroke-width="4" stroke="#259f71" x="215.438" y="289.549" transform="rotate(1.8)" width="3.52" height="3.52" rx="1.01"/><rect fill="none" stroke-width="4" stroke="#259f71" x="182.974" y="303.385" transform="rotate(-.4)" width="3.58" height="3.78" rx="1.23"/><rect fill="none" stroke-width="4" stroke="#259f71" x="205.69" y="302.42" transform="rotate(-.1)" width="3.44" height="3.84" rx="1.24"/><rect fill="none" stroke-width="4" stroke="#259f71" x="242.686" y="298.995" transform="rotate(.7)" width="9.74" height="3.96" rx="1.82"/><rect fill="none" stroke-width="4" stroke="#259f71" x="299.52" y="295.671" transform="rotate(1.2)" width="9.5" height="3.94" rx="1.64"/><rect fill="none" stroke-width="4" stroke="#259f71" x="311.18" y="301.997" width="9.52" height="3.96" rx="1.5"/><rect fill="none" stroke-width="4" stroke="#259f71" x="326.17" y="301.987" width="87.54" height="4" rx="1.56"/><rect fill="none" stroke-width="4" stroke="#259f71" x="323.2" y="307.867" width="90.48" height="4.12" rx="1.67"/><rect fill="none" stroke-width="4" stroke="#259f71" x="205.679" y="308.42" transform="rotate(-.1)" width="3.44" height="3.84" rx="1.24"/><rect fill="none" stroke-width="4" stroke="#259f71" x="240.465" y="304.604" transform="rotate(.8)" width="9.5" height="4" rx="1.65"/><rect fill="none" stroke-width="4" stroke="#259f71" x="292.043" y="303.363" transform="rotate(.9)" width="9.5" height="3.98" rx="1.8"/><rect fill="none" stroke-width="4" stroke="#259f71" x="308.18" y="307.997" width="9.52" height="3.98" rx="1.52"/><rect fill="none" stroke-width="4" stroke="#259f71" x="320.23" y="313.977" width="93.44" height="4" rx="1.59"/><rect fill="none" stroke-width="4" stroke="#259f71" x="206.742" y="313.704" transform="rotate(.1)" width="3.5" height="3.7" rx="1.17"/><rect fill="none" stroke-width="4" stroke="#259f71" x="233.17" y="313.997" width="12.52" height="3.98" rx="1.58"/><rect fill="none" stroke-width="4" stroke="#259f71" x="261.742" y="313.493" transform="rotate(.1)" width="32.52" height="4" rx="1.75"/><rect fill="none" stroke-width="4" stroke="#259f71" x="299.551" y="313.473" transform="rotate(.1)" width="13.72" height="3.96" rx="1.74"/><rect fill="none" stroke-width="4" stroke="#259f71" x="198.108" y="323.2" transform="rotate(-.9)" width="6.5" height="3.96" rx="1.47"/><rect fill="none" stroke-width="4" stroke="#259f71" x="317.19" y="319.987" width="96.54" height="4" rx="1.68"/><rect fill="none" stroke-width="4" stroke="#259f71" x="233.96" y="320.987" width="74.96" height="3" rx="1.48"/><rect fill="none" stroke-width="4" stroke="#259f71" x="23.18" y="325.997" width="12.52" height="3.98" rx="1.53"/><rect fill="none" stroke-width="4" stroke="#259f71" x="197.18" y="325.997" width="9.52" height="3.96" rx="1.5"/><rect fill="none" stroke-width="4" stroke="#259f71" x="233.19" y="325.997" width="68.5" height="3.92" rx="1.45"/><rect fill="none" stroke-width="4" stroke="#259f71" x="308.19" y="325.997" width="105.52" height="3.98" rx="1.63"/><rect fill="none" stroke-width="4" stroke="#259f71" x="305.22" y="331.847" width="108.5" height="4.14" rx="1.9"/><rect fill="none" stroke-width="4" stroke="#259f71" x="17.18" y="331.997" width="21.52" height="3.98" rx="1.55"/><rect fill="none" stroke-width="4" stroke="#259f71" x="194.18" y="331.997" width="9.52" height="3.98" rx="1.5"/><rect fill="none" stroke-width="4" stroke="#259f71" x="233.16" y="332.007" width="60.52" height="3.98" rx="1.71"/><rect fill="none" stroke-width="4" stroke="#259f71" x="296.26" y="337.977" width="117.42" height="4" rx="1.64"/><rect fill="none" stroke-width="4" stroke="#259f71" x="17.18" y="337.987" width="24.52" height="4" rx="1.55"/><rect fill="none" stroke-width="4" stroke="#259f71" x="194.18" y="337.997" width="12.52" height="3.98" rx="1.52"/><rect fill="none" stroke-width="4" stroke="#259f71" x="233.17" y="337.987" width="51.54" height="4" rx="1.6"/><rect fill="none" stroke-width="4" stroke="#259f71" x="20.17" y="343.997" width="24.54" height="3.98" rx="1.55"/><rect fill="none" stroke-width="4" stroke="#259f71" x="196.576" y="344.359" transform="rotate(-.1)" width="9.52" height="3.96" rx="1.49"/><rect fill="none" stroke-width="4" stroke="#259f71" x="233.15" y="343.987" width="42.54" height="4" rx="1.7"/><rect fill="none" stroke-width="4" stroke="#259f71" x="287.17" y="343.987" width="126.54" height="4" rx="1.6"/><rect fill="none" stroke-width="4" stroke="#259f71" x="278.23" y="349.977" width="135.44" height="4" rx="1.52"/><rect fill="none" stroke-width="4" stroke="#259f71" x="23.17" y="349.997" width="24.54" height="3.98" rx="1.55"/><rect fill="none" stroke-width="4" stroke="#259f71" x="197.18" y="349.997" width="15.52" height="3.98" rx="1.54"/><rect fill="none" stroke-width="4" stroke="#259f71" x="235.16" y="349.987" width="34.54" height="4" rx="1.63"/><rect fill="none" stroke-width="4" stroke="#259f71" x="305.2" y="355.867" width="105.48" height="4.12" rx="1.7"/><rect fill="none" stroke-width="4" stroke="#259f71" x="32.18" y="355.997" width="18.52" height="3.98" rx="1.54"/><rect fill="none" stroke-width="4" stroke="#259f71" x="203.18" y="355.997" width="9.52" height="3.96" rx="1.5"/><rect fill="none" stroke-width="4" stroke="#259f71" x="308.05" y="361.967" width="102.66" height="4.02" rx="1.55"/><rect fill="none" stroke-width="4" stroke="#259f71" x="41.21" y="362.057" width="12.46" height="3.86" rx="1.32"/><circle fill="none" stroke-width="4" stroke="#259f71" cx="198.97" cy="363.967" r="1.99"/><rect fill="none" stroke-width="4" stroke="#259f71" x="203.836" y="361.859" transform="rotate(.1)" width="3.48" height="3.66" rx="1.1"/><rect fill="none" stroke-width="4" stroke="#259f71" x="51.502" y="367.934" transform="rotate(.2)" width="3.46" height="3.78" rx="1.21"/><circle fill="none" stroke-width="4" stroke="#259f71" cx="201.96" cy="369.987" r="1.98"/><rect fill="none" stroke-width="4" stroke="#259f71" x="203.353" y="371.289" transform="rotate(-.9)" width="6.5" height="3.96" rx="1.47"/><rect fill="none" stroke-width="4" stroke="#259f71" x="308.17" y="367.987" width="99.54" height="4" rx="1.59"/><rect fill="none" stroke-width="4" stroke="#259f71" x="308.07" y="373.967" width="96.62" height="4.02" rx="1.75"/><ellipse fill="none" stroke-width="4" stroke="#259f71" cx="378.516" cy="-33.197" transform="rotate(86.7)" rx="2" ry="1.92"/><rect fill="none" stroke-width="4" stroke="#259f71" x="203.18" y="373.987" width="9.52" height="3.98" rx="1.5"/><rect fill="none" stroke-width="4" stroke="#259f71" x="305.22" y="379.867" width="96.46" height="4.12" rx="1.95"/><rect fill="none" stroke-width="4" stroke="#259f71" x="197.18" y="379.997" width="18.52" height="3.98" rx="1.54"/><rect fill="none" stroke-width="4" stroke="#259f71" x="299.25" y="385.987" width="99.42" height="3.98" rx="1.7"/><rect fill="none" stroke-width="4" stroke="#259f71" x="200.17" y="385.997" width="21.54" height="3.98" rx="1.55"/><rect fill="none" stroke-width="4" stroke="#259f71" x="183.039" y="388.806" transform="rotate(1)" width="6.5" height="3.96" rx="1.46"/><rect fill="none" stroke-width="4" stroke="#259f71" x="308" y="391.987" width="87.72" height="4" rx="1.97"/><rect fill="none" stroke-width="4" stroke="#259f71" x="17.919" y="398.034" transform="rotate(.1)" width="3.44" height="3.82" rx="1.24"/><rect fill="none" stroke-width="4" stroke="#259f71" x="204.131" y="394.438" transform="rotate(1)" width="6.52" height="3.98" rx="1.49"/><rect fill="none" stroke-width="4" stroke="#259f71" x="306.2" y="397.987" width="83.52" height="3.96" rx="1.67"/><rect fill="none" stroke-width="4" stroke="#259f71" x="305.24" y="403.967" width="78.42" height="4.02" rx="1.7"/><rect fill="none" stroke-width="4" stroke="#259f71" x="14.18" y="404.007" width="9.52" height="3.96" rx="1.5"/><rect fill="none" stroke-width="4" stroke="#259f71" x="167.899" y="403.772" transform="rotate(.1)" width="3.5" height="3.7" rx="1.17"/><rect fill="none" stroke-width="4" stroke="#259f71" x="11.18" y="409.997" width="12.52" height="3.98" rx="1.53"/><rect fill="none" stroke-width="4" stroke="#259f71" x="161.19" y="409.987" width="15.52" height="3.98" rx="1.64"/><rect fill="none" stroke-width="4" stroke="#259f71" x="314.939" y="409.386" transform="rotate(.1)" width="60.46" height="3.92" rx="1.54"/><rect fill="none" stroke-width="4" stroke="#259f71" x="1.624" y="416.126" transform="rotate(-.9)" width="6.5" height="3.96" rx="1.47"/><rect fill="none" stroke-width="4" stroke="#259f71" x="155.2" y="415.987" width="24.54" height="4" rx="1.75"/><rect fill="none" stroke-width="4" stroke="#259f71" x="326.18" y="415.997" width="44.54" height="3.98" rx="1.76"/><rect fill="none" stroke-width="4" stroke="#259f71" x="152.2" y="421.987" width="57.52" height="4" rx="1.68"/><rect fill="none" stroke-width="4" stroke="#259f71" x="333.728" y="420.761" transform="rotate(.2)" width="36.44" height="3.94" rx="1.61"/><rect fill="none" stroke-width="4" stroke="#259f71" x="161.2" y="427.987" width="48.54" height="4" rx="1.79"/><rect fill="none" stroke-width="4" stroke="#259f71" x="335.93" y="427.375" transform="rotate(.1)" width="30.52" height="4" rx="1.78"/><rect fill="none" stroke-width="4" stroke="#259f71" x="159.761" y="433.348" transform="rotate(.2)" width="48.46" height="3.92" rx="1.62"/><rect fill="none" stroke-width="4" stroke="#259f71" x="341.961" y="433.375" transform="rotate(.1)" width="18.5" height="4" rx="1.81"/><rect fill="none" stroke-width="4" stroke="#259f71" x="158.18" y="439.987" width="36.52" height="4" rx="1.59"/><rect fill="none" stroke-width="4" stroke="#259f71" x="345.82" y="436.35" transform="rotate(.6)" width="9.48" height="3.96" rx="1.51"/><ellipse fill="none" stroke-width="4" stroke="#259f71" cx="445.848" cy="43.705" transform="rotate(83.9)" rx="2.02" ry="1.92"/><rect fill="none" stroke-width="4" stroke="#259f71" x="143.17" y="445.987" width="48.52" height="3.98" rx="1.56"/><rect fill="none" stroke-width="4" stroke="#259f71" x="2.18" y="451.997" width="9.52" height="3.98" rx="1.52"/><rect fill="none" stroke-width="4" stroke="#259f71" x="25.465" y="451.659" transform="rotate(.7)" width="6.76" height="4" rx="1.38"/><rect fill="none" stroke-width="4" stroke="#259f71" x="128.16" y="451.987" width="57.52" height="4" rx="1.73"/><rect fill="none" stroke-width="4" stroke="#259f71" x="2.18" y="457.987" width="27.52" height="4" rx="1.53"/><rect fill="none" stroke-width="4" stroke="#259f71" x="51.635" y="456.87" transform="rotate(1.3)" width="6.5" height="3.96" rx="1.58"/><rect fill="none" stroke-width="4" stroke="#259f71" x="67.218" y="456.954" transform="rotate(1)" width="3.48" height="3.68" rx="1.13"/><rect fill="none" stroke-width="4" stroke="#259f71" x="83.18" y="457.987" width="96.54" height="3.98" rx="1.72"/><rect fill="none" stroke-width="4" stroke="#259f71" x="11.17" y="463.987" width="54.54" height="4" rx="1.56"/><rect fill="none" stroke-width="4" stroke="#259f71" x="74.18" y="463.997" width="18.52" height="3.98" rx="1.55"/><rect fill="none" stroke-width="4" stroke="#259f71" x="113.18" y="463.997" width="18.52" height="3.98" rx="1.54"/><rect fill="none" stroke-width="4" stroke="#259f71" x="137.17" y="463.997" width="24.52" height="3.98" rx="1.63"/><rect fill="none" stroke-width="4" stroke="#259f71" x="14.17" y="469.987" width="135.54" height="4" rx="1.63"/><rect fill="none" stroke-width="4" stroke="#259f71" x="29.17" y="475.987" width="111.54" height="4" rx="1.58"/><rect fill="none" stroke-width="4" stroke="#259f71" x="60.065" y="481.83" transform="rotate(.1)" width="72.46" height="3.92" rx="1.59"/><rect fill="none" stroke-width="4" stroke="#259f71" x="81.95" y="487.616" transform="rotate(.2)" width="39.42" height="4" rx="1.68"/></svg>