<svg xmlns="http://www.w3.org/2000/svg" xmlns:xlink="http://www.w3.org/1999/xlink" viewbox="0 0 120 120" width="120" height="120" stroke="currentColor" fill="currentColor"><path d="M23.1 0C18 0 13.9 4.2 13.9 9.2v87.7c0 5 4.2 9.2 9.2 9.2h9.2v13.9l13.8-9.2 13.9 9.2v-33a9.2 9.2 0 0 1-2 0.8 8.9 8.9 0 0 1-5.1 4.6 8.9 8.9 0 0 1-3 0.5c-1.3 0-2.6-0.2-3.8-0.7a8.7 8.7 0 0 1-3.7 0.7c-1 0-2-0.1-3-0.5a9 9 0 0 1-5.1-4.6A9.3 9.3 0 0 1 32.3 87V96.9H23.1V9.2h73.8v87.7h-23a4.6 4.6 0 1 0 0 9.2h23c5 0 9.2-4.2 9.2-9.2V9.2c0-5-4.2-9.2-9.2-9.2H23.1z m13 23.1A4.6 4.6 0 0 0 36.9 32.3h46.2a4.6 4.6 0 1 0 0-9.2H36.9a4.6 4.6 0 0 0-0.4 0 4.6 4.6 0 0 0-0.4 0z m0 18.4A4.6 4.6 0 0 0 36.9 50.8h32.3a4.6 4.6 0 1 0 0-9.3H36.9a4.6 4.6 0 0 0-0.4 0 4.6 4.6 0 0 0-0.4 0zM46.1 58.4a4.4 4.4 0 0 0-4.1 3c-0.2 0.1-0.4 0.1-0.6 0.2a4.3 4.3 0 0 0-5 0.4 4.4 4.4 0 0 0-1.3 4.9c-0.1 0.2-0.2 0.4-0.3 0.6a4.4 4.4 0 0 0-3.7 3.6 4.3 4.3 0 0 0 2.2 4.5c0 0.3-0.1 0.6 0 0.8a4.4 4.4 0 0 0-0.4 5c0.9 1.6 2.7 2.4 4.5 2.1 0.2 0.2 0.5 0.4 0.7 0.6 0 1.8 1.2 3.4 2.9 4 1.7 0.6 3.6 0 4.7-1.3 0.2 0 0.3 0.2 0.4 0.2 0.2 0 0.4-0.1 0.6-0.2a4.3 4.3 0 0 0 3.2 1.5c0.5 0 0.9 0 1.5-0.2a4.4 4.4 0 0 0 2.8-4c0.2-0.2 0.5-0.4 0.7-0.6a4.5 4.5 0 0 0 4.5-2.1 4.4 4.4 0 0 0-0.4-5c0.1-0.3 0-0.6 0-0.8a4.3 4.3 0 0 0 2.1-4.5 4.4 4.4 0 0 0-3.5-3.6c-0.1-0.2-0.2-0.4-0.3-0.6a4.4 4.4 0 0 0-1.3-4.9 4.3 4.3 0 0 0-5.1-0.4c-0.2-0.1-0.4-0.1-0.6-0.2a4.4 4.4 0 0 0-4.2-3z m0 8.1c4.1 0 7.4 3.3 7.4 7.4 0 4.1-3.3 7.4-7.4 7.3A7.3 7.3 0 0 1 38.8 73.9c0-4.1 3.3-7.4 7.3-7.4z"  /></svg>